<svg xmlns="http://www.w3.org/2000/svg" width="1024" height="1024" viewBox="0 0 1024 1024">
  <rect width="1024" height="1024" rx="228" fill="#F7F2E8"/>
  <rect x="178" y="178" width="668" height="668" rx="92" fill="#A63228"/>
  <path d="M244 326V254h72M708 254h72v72M780 698v72h-72M316 770h-72v-72"
        fill="none" stroke="#F7F2E8" stroke-width="30" stroke-linecap="square"/>
  <path d="M382 344l42 48M512 320v86M642 344l-42 48"
        fill="none" stroke="#F7F2E8" stroke-width="34" stroke-linecap="round"/>
  <path d="M332 430h360M384 430c8 64 52 88 128 88s120-24 128-88"
        fill="none" stroke="#F7F2E8" stroke-width="38" stroke-linecap="round" stroke-linejoin="round"/>
  <path d="M512 514v174M414 590h196M372 704h280"
        fill="none" stroke="#F7F2E8" stroke-width="42" stroke-linecap="round"/>
</svg>

